<svg width="120" height="120" viewBox="0 0 120 120" fill="none" xmlns="http://www.w3.org/2000/svg">
<g clip-path="url(#clip0_14386_2702)">
<path d="M119.5 49.0713V119.5H0.5V49.0713H119.5Z" fill="white" stroke="black"/>
<path d="M12.1445 102.857H108.93" stroke="black"/>
<path d="M11.4297 86.4287H108.215" stroke="black"/>
<path d="M100.714 61.0714L60.3571 112.143L20 61.0714L48.5714 10H71.7857L100.714 61.0714Z" fill="white" stroke="black"/>
<path d="M79.5 0.5V16.6426H40.5V0.5H79.5Z" fill="white" stroke="black"/>
<path d="M60 105.714L60 67.1431" stroke="black"/>
<rect x="34.7852" y="11.9287" width="50.4286" height="10.4286" fill="white" stroke="black"/>
<path d="M60.001 50.5C64.4587 50.5 68.0722 54.1136 68.0723 58.5713C68.0723 63.029 64.4587 66.6426 60.001 66.6426C55.5433 66.6425 51.9297 63.029 51.9297 58.5713C51.9298 54.1137 55.5434 50.5001 60.001 50.5Z" stroke="black"/>
<path d="M66.0698 82.8568C59.2126 75.4284 48.0936 86.3092 45.3555 93.214L60.3555 112.143L79.9983 87.1426C76.784 88.5712 72.927 90.2853 66.0698 82.8568Z" fill="#C8B5F0" stroke="black"/>
</g>
<defs>
<clipPath id="clip0_14386_2702">
<rect width="120" height="120" fill="white"/>
</clipPath>
</defs>
</svg>
