<svg width="120" height="120" viewBox="0 0 120 120" fill="none" xmlns="http://www.w3.org/2000/svg">
<g clip-path="url(#clip0_14386_4489)">
<path d="M32.1436 60.5C46.0689 60.5 57.3582 71.7886 57.3584 85.7139C57.3584 99.6393 46.069 110.929 32.1436 110.929C18.2183 110.928 6.92969 99.6392 6.92969 85.7139C6.92991 71.7887 18.2184 60.5002 32.1436 60.5Z" fill="white" stroke="black"/>
<path d="M89.2842 60.5C103.21 60.5 114.499 71.7886 114.499 85.7139C114.499 99.6393 103.21 110.929 89.2842 110.929C75.3589 110.928 64.0703 99.6392 64.0703 85.7139C64.0705 71.7887 75.359 60.5002 89.2842 60.5Z" fill="white" stroke="black"/>
<path d="M89.2871 69.0713C98.4786 69.0713 105.931 76.5224 105.931 85.7139C105.931 94.9055 98.4787 102.357 89.2871 102.357C80.0956 102.357 72.6445 94.9054 72.6445 85.7139C72.6447 76.5225 80.0957 69.0714 89.2871 69.0713Z" fill="white" stroke="black"/>
<path d="M89.2861 77.6431C93.7438 77.6431 97.3573 81.2567 97.3574 85.7144C97.3574 90.1721 93.7439 93.7856 89.2861 93.7856C84.8285 93.7856 81.2148 90.172 81.2148 85.7144C81.2149 81.2567 84.8285 77.6431 89.2861 77.6431Z" fill="#BDF0ED" stroke="black"/>
<path d="M32.1426 69.0713C41.3341 69.0713 48.786 76.5224 48.7861 85.7139C48.7861 94.9055 41.3342 102.357 32.1426 102.357C22.9511 102.357 15.5 94.9054 15.5 85.7139C15.5002 76.5225 22.9512 69.0714 32.1426 69.0713Z" fill="white" stroke="black"/>
<path d="M6.4269 85.7141H0.355469V8.57129H119.641V85.7141H114.641" stroke="black"/>
<path d="M57.8555 86.0713H63.9269" stroke="black"/>
<path d="M32.1416 77.6431C36.5993 77.6431 40.2128 81.2567 40.2129 85.7144C40.2129 90.1721 36.5993 93.7856 32.1416 93.7856C27.6839 93.7856 24.0703 90.172 24.0703 85.7144C24.0704 81.2567 27.684 77.6431 32.1416 77.6431Z" fill="#BDF0ED" stroke="black"/>
<path d="M15 13.5713H42.8571" stroke="black"/>
</g>
<defs>
<clipPath id="clip0_14386_4489">
<rect width="120" height="120" fill="white"/>
</clipPath>
</defs>
</svg>
