<svg width="120" height="120" viewBox="0 0 120 120" fill="none" xmlns="http://www.w3.org/2000/svg">
<g clip-path="url(#clip0_14386_991)">
<path d="M63.4624 78.4614H90.0009L97.5009 82.4999L109.616 119.423H70.9624L62.3086 101.538L63.4624 78.4614Z" fill="#E1E1D7" stroke="black"/>
<path d="M75.0439 73.8857C77.9594 73.4936 82.7816 73.1096 88.0098 73.208C93.3679 73.3089 99.1111 73.9144 103.659 75.5088C112.619 78.6497 117.889 83.059 119.502 84.9453V119.5H92.4795C92.5536 118.302 92.5463 116.582 92.3203 114.744C92.0578 112.61 91.4953 110.27 90.3887 108.403C89.7102 107.259 88.8246 106.096 87.8877 104.89C86.9448 103.676 85.9452 102.411 85.0068 101.034C83.1344 98.2873 81.5333 95.1302 81.2129 91.1992C80.8838 87.1618 80.5508 84.6532 79.8154 82.8486C79.0599 80.9949 77.8939 79.913 76.041 78.6729C74.7167 77.7866 74.3431 76.7896 74.3477 75.9307C74.3521 75.1229 74.693 74.3745 75.0439 73.8857Z" fill="white" stroke="black"/>
<path d="M42.4043 37.4229C43.5804 38.1542 45.2856 39.3979 46.708 40.8359C47.443 41.579 48.0902 42.3625 48.5518 43.1416C49.0152 43.9237 49.2724 44.6701 49.2725 45.3506C49.2725 47.4459 49.8985 49.8244 50.8223 51.877C51.7398 53.9157 52.9916 55.7237 54.3115 56.6035C54.4811 56.7166 54.6458 56.9411 54.7773 57.3447C54.9078 57.7449 54.9885 58.2671 55.0312 58.8984C55.1169 60.165 55.0429 61.7479 54.9922 63.4463C54.9421 65.1256 54.9162 66.9034 55.1094 68.4941C55.3012 70.0734 55.7182 71.5543 56.624 72.5732C57.9954 74.1156 59.9683 75.0544 61.832 75.6094C63.4431 76.0891 65.0138 76.2934 66.1309 76.3408V86.8955L66.2773 87.042C66.3069 87.0715 66.4071 87.1937 66.5967 87.4717C66.7783 87.738 67.0262 88.1232 67.3477 88.6533C67.9904 89.7134 68.9225 91.3443 70.2041 93.7471C71.8588 96.8491 73.7905 98.3618 75.4111 99.1777C76.2152 99.5825 76.9319 99.8102 77.4678 99.9746C77.7425 100.059 77.9483 100.121 78.1084 100.182C78.2834 100.248 78.3145 100.282 78.3037 100.271C78.422 100.4 78.5052 100.611 78.541 101.07C78.5776 101.54 78.5591 102.111 78.5762 102.938C78.6096 104.551 78.7804 106.85 79.8008 110.115C81.2215 114.661 81.4677 118.034 81.416 119.5H0.5V56.7373C1.37961 55.3954 3.68702 53.0914 7.02832 50.5127C10.4492 47.8727 14.9024 44.982 19.8848 42.5908C29.7287 37.8664 37.6148 37.431 42.4043 37.4229Z" fill="white" stroke="black"/>
<mask id="path-4-inside-1_14386_991" fill="white">
<path fill-rule="evenodd" clip-rule="evenodd" d="M25.9633 50.769C22.4585 50.769 19.6172 53.6103 19.6172 57.1152V63.3458C19.6172 64.0893 20.2784 64.6151 21.0218 64.6151H30.9048C31.6483 64.6151 32.3095 64.0893 32.3095 63.3458V57.1152C32.3095 53.6103 29.4682 50.769 25.9633 50.769Z"/>
</mask>
<path fill-rule="evenodd" clip-rule="evenodd" d="M25.9633 50.769C22.4585 50.769 19.6172 53.6103 19.6172 57.1152V63.3458C19.6172 64.0893 20.2784 64.6151 21.0218 64.6151H30.9048C31.6483 64.6151 32.3095 64.0893 32.3095 63.3458V57.1152C32.3095 53.6103 29.4682 50.769 25.9633 50.769Z" fill="white"/>
<path d="M20.6172 57.1152C20.6172 54.1626 23.0107 51.769 25.9633 51.769V49.769C21.9062 49.769 18.6172 53.058 18.6172 57.1152H20.6172ZM20.6172 63.3458V57.1152H18.6172V63.3458H20.6172ZM21.0218 65.6151H30.9048V63.6151H21.0218V65.6151ZM31.3095 57.1152V63.3458H33.3095V57.1152H31.3095ZM25.9633 51.769C28.9159 51.769 31.3095 54.1626 31.3095 57.1152H33.3095C33.3095 53.058 30.0205 49.769 25.9633 49.769V51.769ZM30.9048 65.6151C32.064 65.6151 33.3095 64.7689 33.3095 63.3458H31.3095C31.3095 63.4013 31.2906 63.4517 31.2301 63.5044C31.1613 63.5642 31.0456 63.6151 30.9048 63.6151V65.6151ZM18.6172 63.3458C18.6172 64.7689 19.8627 65.6151 21.0218 65.6151V63.6151C20.881 63.6151 20.7654 63.5642 20.6966 63.5044C20.636 63.4517 20.6172 63.4013 20.6172 63.3458H18.6172Z" fill="black" mask="url(#path-4-inside-1_14386_991)"/>
<mask id="path-6-inside-2_14386_991" fill="white">
<path fill-rule="evenodd" clip-rule="evenodd" d="M15.5766 73.8462C12.0717 73.8462 9.23047 76.6875 9.23047 80.1924V86.423C9.23047 87.1664 9.89171 87.6922 10.6351 87.6922H20.5181C21.2615 87.6922 21.9228 87.1664 21.9228 86.423V80.1923C21.9228 76.6875 19.0815 73.8462 15.5766 73.8462Z"/>
</mask>
<path fill-rule="evenodd" clip-rule="evenodd" d="M15.5766 73.8462C12.0717 73.8462 9.23047 76.6875 9.23047 80.1924V86.423C9.23047 87.1664 9.89171 87.6922 10.6351 87.6922H20.5181C21.2615 87.6922 21.9228 87.1664 21.9228 86.423V80.1923C21.9228 76.6875 19.0815 73.8462 15.5766 73.8462Z" fill="white"/>
<path d="M10.2305 80.1924C10.2305 77.2398 12.624 74.8462 15.5766 74.8462V72.8462C11.5195 72.8462 8.23047 76.1352 8.23047 80.1924H10.2305ZM10.2305 86.423V80.1924H8.23047V86.423H10.2305ZM10.6351 88.6922H20.5181V86.6922H10.6351V88.6922ZM20.9228 80.1923V86.423H22.9228V80.1923H20.9228ZM15.5766 74.8462C18.5292 74.8462 20.9228 77.2397 20.9228 80.1923H22.9228C22.9228 76.1352 19.6338 72.8462 15.5766 72.8462V74.8462ZM20.5181 88.6922C21.6773 88.6922 22.9228 87.846 22.9228 86.423H20.9228C20.9228 86.4785 20.9039 86.5289 20.8433 86.5815C20.7745 86.6413 20.6589 86.6922 20.5181 86.6922V88.6922ZM8.23047 86.423C8.23047 87.846 9.47599 88.6922 10.6351 88.6922V86.6922C10.4943 86.6922 10.3787 86.6413 10.3099 86.5815C10.2493 86.5289 10.2305 86.4785 10.2305 86.423H8.23047Z" fill="black" mask="url(#path-6-inside-2_14386_991)"/>
<mask id="path-8-inside-3_14386_991" fill="white">
<path fill-rule="evenodd" clip-rule="evenodd" d="M37.4985 73.8462C33.9936 73.8462 31.1523 76.6875 31.1523 80.1924V86.423C31.1523 87.1664 31.8136 87.6922 32.557 87.6922H42.44C43.1834 87.6922 43.8447 87.1664 43.8447 86.423V80.1923C43.8447 76.6875 41.0034 73.8462 37.4985 73.8462Z"/>
</mask>
<path fill-rule="evenodd" clip-rule="evenodd" d="M37.4985 73.8462C33.9936 73.8462 31.1523 76.6875 31.1523 80.1924V86.423C31.1523 87.1664 31.8136 87.6922 32.557 87.6922H42.44C43.1834 87.6922 43.8447 87.1664 43.8447 86.423V80.1923C43.8447 76.6875 41.0034 73.8462 37.4985 73.8462Z" fill="white"/>
<path d="M32.1523 80.1924C32.1523 77.2398 34.5459 74.8462 37.4985 74.8462V72.8462C33.4413 72.8462 30.1523 76.1352 30.1523 80.1924H32.1523ZM32.1523 86.423V80.1924H30.1523V86.423H32.1523ZM32.557 88.6922H42.44V86.6922H32.557V88.6922ZM42.8447 80.1923V86.423H44.8447V80.1923H42.8447ZM37.4985 74.8462C40.4511 74.8462 42.8447 77.2397 42.8447 80.1923H44.8447C44.8447 76.1352 41.5557 72.8462 37.4985 72.8462V74.8462ZM42.44 88.6922C43.5991 88.6922 44.8447 87.846 44.8447 86.423H42.8447C42.8447 86.4785 42.8258 86.5289 42.7652 86.5815C42.6964 86.6413 42.5808 86.6922 42.44 86.6922V88.6922ZM30.1523 86.423C30.1523 87.846 31.3979 88.6922 32.557 88.6922V86.6922C32.4162 86.6922 32.3006 86.6413 32.2318 86.5815C32.1712 86.5289 32.1523 86.4785 32.1523 86.423H30.1523Z" fill="black" mask="url(#path-8-inside-3_14386_991)"/>
<mask id="path-10-inside-4_14386_991" fill="white">
<path fill-rule="evenodd" clip-rule="evenodd" d="M15.5766 96.9229C12.0717 96.9229 9.23047 99.7641 9.23047 103.269V109.5C9.23047 110.243 9.89175 110.769 10.6352 110.769H20.518C21.2615 110.769 21.9228 110.243 21.9228 109.5V103.269C21.9228 99.7641 19.0815 96.9229 15.5766 96.9229Z"/>
</mask>
<path fill-rule="evenodd" clip-rule="evenodd" d="M15.5766 96.9229C12.0717 96.9229 9.23047 99.7641 9.23047 103.269V109.5C9.23047 110.243 9.89175 110.769 10.6352 110.769H20.518C21.2615 110.769 21.9228 110.243 21.9228 109.5V103.269C21.9228 99.7641 19.0815 96.9229 15.5766 96.9229Z" fill="white"/>
<path d="M10.2305 103.269C10.2305 100.316 12.624 97.9229 15.5766 97.9229V95.9229C11.5195 95.9229 8.23047 99.2118 8.23047 103.269H10.2305ZM10.2305 109.5V103.269H8.23047V109.5H10.2305ZM10.6352 111.769H20.518V109.769H10.6352V111.769ZM20.9228 103.269V109.5H22.9228V103.269H20.9228ZM15.5766 97.9229C18.5292 97.9229 20.9228 100.316 20.9228 103.269H22.9228C22.9228 99.2118 19.6338 95.9229 15.5766 95.9229V97.9229ZM20.518 111.769C21.6772 111.769 22.9228 110.923 22.9228 109.5H20.9228C20.9228 109.555 20.9039 109.606 20.8433 109.658C20.7745 109.718 20.6588 109.769 20.518 109.769V111.769ZM8.23047 109.5C8.23047 110.923 9.47604 111.769 10.6352 111.769V109.769C10.4944 109.769 10.3787 109.718 10.3099 109.658C10.2493 109.606 10.2305 109.555 10.2305 109.5H8.23047Z" fill="black" mask="url(#path-10-inside-4_14386_991)"/>
<mask id="path-12-inside-5_14386_991" fill="white">
<path fill-rule="evenodd" clip-rule="evenodd" d="M37.4985 96.9229C33.9936 96.9229 31.1523 99.7641 31.1523 103.269V109.5C31.1523 110.243 31.8136 110.769 32.5571 110.769H42.4399C43.1834 110.769 43.8447 110.243 43.8447 109.5V103.269C43.8447 99.7641 41.0034 96.9229 37.4985 96.9229Z"/>
</mask>
<path fill-rule="evenodd" clip-rule="evenodd" d="M37.4985 96.9229C33.9936 96.9229 31.1523 99.7641 31.1523 103.269V109.5C31.1523 110.243 31.8136 110.769 32.5571 110.769H42.4399C43.1834 110.769 43.8447 110.243 43.8447 109.5V103.269C43.8447 99.7641 41.0034 96.9229 37.4985 96.9229Z" fill="white"/>
<path d="M32.1523 103.269C32.1523 100.316 34.5459 97.9229 37.4985 97.9229V95.9229C33.4413 95.9229 30.1523 99.2118 30.1523 103.269H32.1523ZM32.1523 109.5V103.269H30.1523V109.5H32.1523ZM32.5571 111.769H42.4399V109.769H32.5571V111.769ZM42.8447 103.269V109.5H44.8447V103.269H42.8447ZM37.4985 97.9229C40.4511 97.9229 42.8447 100.316 42.8447 103.269H44.8447C44.8447 99.2118 41.5557 95.9229 37.4985 95.9229V97.9229ZM42.4399 111.769C43.5991 111.769 44.8447 110.923 44.8447 109.5H42.8447C42.8447 109.555 42.8258 109.606 42.7652 109.658C42.6964 109.718 42.5807 109.769 42.4399 109.769V111.769ZM30.1523 109.5C30.1523 110.923 31.3979 111.769 32.5571 111.769V109.769C32.4163 109.769 32.3006 109.718 32.2318 109.658C32.1712 109.606 32.1523 109.555 32.1523 109.5H30.1523Z" fill="black" mask="url(#path-12-inside-5_14386_991)"/>
<mask id="path-14-inside-6_14386_991" fill="white">
<path fill-rule="evenodd" clip-rule="evenodd" d="M59.4243 96.9229C55.9194 96.9229 53.0781 99.7641 53.0781 103.269V109.5C53.0781 110.243 53.7394 110.769 54.4829 110.769H64.3657C65.1092 110.769 65.7704 110.243 65.7704 109.5V103.269C65.7704 99.7641 62.9292 96.9229 59.4243 96.9229Z"/>
</mask>
<path fill-rule="evenodd" clip-rule="evenodd" d="M59.4243 96.9229C55.9194 96.9229 53.0781 99.7641 53.0781 103.269V109.5C53.0781 110.243 53.7394 110.769 54.4829 110.769H64.3657C65.1092 110.769 65.7704 110.243 65.7704 109.5V103.269C65.7704 99.7641 62.9292 96.9229 59.4243 96.9229Z" fill="white"/>
<path d="M54.0781 103.269C54.0781 100.316 56.4717 97.9229 59.4243 97.9229V95.9229C55.3671 95.9229 52.0781 99.2118 52.0781 103.269H54.0781ZM54.0781 109.5V103.269H52.0781V109.5H54.0781ZM54.4829 111.769H64.3657V109.769H54.4829V111.769ZM64.7704 103.269V109.5H66.7704V103.269H64.7704ZM59.4243 97.9229C62.3769 97.9229 64.7704 100.316 64.7704 103.269H66.7704C66.7704 99.2118 63.4815 95.9229 59.4243 95.9229V97.9229ZM64.3657 111.769C65.5249 111.769 66.7704 110.923 66.7704 109.5H64.7704C64.7704 109.555 64.7516 109.606 64.691 109.658C64.6222 109.718 64.5065 109.769 64.3657 109.769V111.769ZM52.0781 109.5C52.0781 110.923 53.3237 111.769 54.4829 111.769V109.769C54.3421 109.769 54.2264 109.718 54.1576 109.658C54.097 109.606 54.0781 109.555 54.0781 109.5H52.0781Z" fill="black" mask="url(#path-14-inside-6_14386_991)"/>
<path d="M96.9248 0.5C109.394 0.50012 119.502 10.6083 119.502 23.0771C119.502 35.5459 109.394 45.6542 96.9248 45.6543C84.456 45.6543 74.3478 35.5459 74.3477 23.0771C74.3477 10.6083 84.4559 0.5 96.9248 0.5Z" fill="white" stroke="black"/>
</g>
<defs>
<clipPath id="clip0_14386_991">
<rect width="120" height="120" fill="white"/>
</clipPath>
</defs>
</svg>
