<svg width="120" height="120" viewBox="0 0 120 120" fill="none" xmlns="http://www.w3.org/2000/svg">
<g clip-path="url(#clip0_14386_2043)">
<rect x="0.5" y="0.5" width="119" height="119" fill="white" stroke="black"/>
<path d="M30 0V120" stroke="black"/>
<path d="M120 30L1.3113e-06 30" stroke="black"/>
<path d="M60 0V120" stroke="black"/>
<path d="M120 60L1.3113e-06 60" stroke="black"/>
<path d="M90 0V120" stroke="black"/>
<path d="M120 90L1.3113e-06 90" stroke="black"/>
<path d="M119.5 119.5H1.15723C5.8299 114.623 9.86684 112.168 13.4736 111.124C17.2746 110.024 20.6569 110.471 23.8975 111.395C25.5238 111.858 27.1023 112.437 28.6895 113.001C30.2691 113.562 31.8549 114.107 33.46 114.483C36.6868 115.241 40.0158 115.322 43.6504 113.525C46.4052 112.164 48.1685 109.128 49.582 105.525C50.9948 101.924 52.1303 97.5423 53.4961 93.4434C54.8768 89.2997 56.5085 85.3828 58.9404 82.5039C61.3518 79.6496 64.555 77.8077 69.1426 77.8076C76.6225 77.8076 80.2004 81.9708 83.3594 85.1602C84.9149 86.7306 86.4465 88.1511 88.3359 88.5088C90.2705 88.8748 92.4221 88.111 95.1807 85.7656C97.4156 83.8654 99.5024 81.8288 101.516 79.8535C103.534 77.8736 105.474 75.9585 107.439 74.2803C111.231 71.0421 115.04 68.7471 119.5 68.5869V119.5Z" fill="#C8F3CF" stroke="black"/>
</g>
<defs>
<clipPath id="clip0_14386_2043">
<rect width="120" height="120" fill="white"/>
</clipPath>
</defs>
</svg>
